<mxfile host="app.diagrams.net" modified="2024-06-09T17:19:32.413Z" agent="Mozilla/5.0 (Windows NT 10.0; Win64; x64) AppleWebKit/537.36 (KHTML, like Gecko) Chrome/125.0.0.0 Safari/537.36" etag="8kBogrzyDU0YhUtkC1S0" version="24.4.9" type="device">
  <diagram name="第 1 页" id="bbx5RbeXclblNRAOI-7V">
    <mxGraphModel dx="1434" dy="738" grid="1" gridSize="10" guides="1" tooltips="1" connect="1" arrows="1" fold="1" page="1" pageScale="1" pageWidth="827" pageHeight="1169" math="1" shadow="0">
      <root>
        <mxCell id="0" />
        <mxCell id="1" parent="0" />
        <mxCell id="7YcUber-E3V9yJN7mNZU-3" value="" style="edgeStyle=orthogonalEdgeStyle;rounded=0;orthogonalLoop=1;jettySize=auto;html=1;" edge="1" parent="1" source="7YcUber-E3V9yJN7mNZU-1" target="7YcUber-E3V9yJN7mNZU-2">
          <mxGeometry relative="1" as="geometry" />
        </mxCell>
        <mxCell id="7YcUber-E3V9yJN7mNZU-14" value="" style="edgeStyle=orthogonalEdgeStyle;rounded=0;orthogonalLoop=1;jettySize=auto;html=1;" edge="1" parent="1" source="7YcUber-E3V9yJN7mNZU-2" target="7YcUber-E3V9yJN7mNZU-12">
          <mxGeometry relative="1" as="geometry" />
        </mxCell>
        <mxCell id="7YcUber-E3V9yJN7mNZU-2" value="&lt;font style=&quot;font-size: 16px;&quot;&gt;$$G$$&lt;/font&gt;" style="rounded=1;whiteSpace=wrap;html=1;fillColor=#d5e8d4;strokeColor=#82b366;" vertex="1" parent="1">
          <mxGeometry x="450" y="360" width="80" height="50" as="geometry" />
        </mxCell>
        <mxCell id="7YcUber-E3V9yJN7mNZU-4" value="" style="edgeStyle=orthogonalEdgeStyle;rounded=0;orthogonalLoop=1;jettySize=auto;html=1;entryX=0;entryY=0.5;entryDx=0;entryDy=0;" edge="1" parent="1" target="7YcUber-E3V9yJN7mNZU-1">
          <mxGeometry relative="1" as="geometry">
            <mxPoint x="310" y="385" as="sourcePoint" />
            <mxPoint x="340" y="384.5" as="targetPoint" />
          </mxGeometry>
        </mxCell>
        <mxCell id="7YcUber-E3V9yJN7mNZU-6" value="&lt;font style=&quot;font-size: 16px;&quot;&gt;$$e_j(k)$$&lt;/font&gt;" style="text;html=1;align=center;verticalAlign=middle;resizable=0;points=[];autosize=1;strokeColor=none;fillColor=none;" vertex="1" parent="1">
          <mxGeometry x="230" y="370" width="100" height="30" as="geometry" />
        </mxCell>
        <mxCell id="7YcUber-E3V9yJN7mNZU-10" value="" style="group" vertex="1" connectable="0" parent="1">
          <mxGeometry x="350" y="360" width="60" height="50" as="geometry" />
        </mxCell>
        <mxCell id="7YcUber-E3V9yJN7mNZU-1" value="" style="rounded=1;whiteSpace=wrap;html=1;fillColor=#dae8fc;strokeColor=#6c8ebf;" vertex="1" parent="7YcUber-E3V9yJN7mNZU-10">
          <mxGeometry width="60" height="50" as="geometry" />
        </mxCell>
        <mxCell id="7YcUber-E3V9yJN7mNZU-9" value="" style="endArrow=none;html=1;rounded=0;strokeWidth=2;" edge="1" parent="7YcUber-E3V9yJN7mNZU-10">
          <mxGeometry width="50" height="50" relative="1" as="geometry">
            <mxPoint x="45" y="40" as="sourcePoint" />
            <mxPoint x="15" y="10" as="targetPoint" />
          </mxGeometry>
        </mxCell>
        <mxCell id="7YcUber-E3V9yJN7mNZU-11" value="" style="group" vertex="1" connectable="0" parent="1">
          <mxGeometry x="570" y="360" width="60" height="50" as="geometry" />
        </mxCell>
        <mxCell id="7YcUber-E3V9yJN7mNZU-15" style="edgeStyle=orthogonalEdgeStyle;rounded=0;orthogonalLoop=1;jettySize=auto;html=1;" edge="1" parent="7YcUber-E3V9yJN7mNZU-11" source="7YcUber-E3V9yJN7mNZU-12">
          <mxGeometry relative="1" as="geometry">
            <mxPoint x="100" y="25" as="targetPoint" />
          </mxGeometry>
        </mxCell>
        <mxCell id="7YcUber-E3V9yJN7mNZU-12" value="" style="rounded=1;whiteSpace=wrap;html=1;fillColor=#dae8fc;strokeColor=#6c8ebf;" vertex="1" parent="7YcUber-E3V9yJN7mNZU-11">
          <mxGeometry width="60" height="50" as="geometry" />
        </mxCell>
        <mxCell id="7YcUber-E3V9yJN7mNZU-13" value="" style="endArrow=none;html=1;rounded=0;strokeWidth=2;" edge="1" parent="7YcUber-E3V9yJN7mNZU-11">
          <mxGeometry width="50" height="50" relative="1" as="geometry">
            <mxPoint x="45" y="40" as="sourcePoint" />
            <mxPoint x="15" y="10" as="targetPoint" />
          </mxGeometry>
        </mxCell>
      </root>
    </mxGraphModel>
  </diagram>
</mxfile>
